<svg width="48" height="82" viewBox="0 0 48 82" fill="none" xmlns="http://www.w3.org/2000/svg">
    <path d="M34.294 8.22c-1.189-5.618-6.84-9.295-11.91-6.598-6.24 3.319-11.58 8.34-15.417 14.624-5.716 9.365-7.628 20.77-5.314 31.708 2.315 10.937 8.665 20.51 17.654 26.613 6.083 4.13 13.037 6.442 20.12 6.79 5.656.28 9.215-5.323 8.042-10.865-1.188-5.618-6.988-8.932-12.451-10.702a20.31 20.31 0 0 1-5.15-2.524c-4.585-3.112-7.823-7.995-9.003-13.573-1.18-5.578-.206-11.395 2.71-16.172a20.877 20.877 0 0 1 3.853-4.648c4.21-3.788 8.038-9.112 6.866-14.653z" fill="#F1AAAA"/>
</svg>
