<svg width="82" height="43" viewBox="0 0 82 43" fill="none" xmlns="http://www.w3.org/2000/svg">
    <path d="M7.365 6.646c-4.494.427-7.856 4.487-6.431 8.77 2.412 7.257 6.997 13.755 13.279 18.65 8.516 6.635 19.454 9.779 30.406 8.739 10.952-1.04 21.022-6.178 27.994-14.285 5.174-6.015 8.327-13.3 9.163-20.917.485-4.426-3.551-7.685-7.983-7.264-4.494.427-7.637 4.535-8.767 8.906a23.611 23.611 0 0 1-4.982 9.483c-4.243 4.933-10.371 8.06-17.037 8.694-6.666.632-13.322-1.281-18.506-5.32-2.988-2.328-5.345-5.252-6.933-8.527-1.943-4.005-5.77-7.35-10.203-6.93z" fill="#F1AAAA"/>
</svg>
