<svg width="152" height="187" viewBox="0 0 152 187" fill="none" xmlns="http://www.w3.org/2000/svg">
    <path d="M28.18 51.93A76 76 0 0 0 123.82 170.07L76 111 28.18 51.93z" fill="#746187"/>
    <path d="M42.026 83.911c-2.701 4.964-.823 11.328 4.695 12.55 6.79 1.505 13.995 1.16 20.882-1.09 10.263-3.354 18.983-10.667 24.241-20.33 5.26-9.663 6.626-20.885 3.8-31.197-1.912-6.978-5.638-13.152-10.715-17.94-4.055-3.824-10.298-1.906-12.962 2.99-2.701 4.964-.48 11.15 2.477 15.966a19.986 19.986 0 0 1 2.24 5.18c1.441 5.26.744 10.983-1.938 15.911-2.682 4.928-7.13 8.658-12.363 10.369a20.546 20.546 0 0 1-5.855 1.015c-5.572.143-11.838 1.68-14.502 6.576z" fill="#F1AAAA"/>
</svg>
